<svg id="Group" xmlns="http://www.w3.org/2000/svg" width="20.833" height="20.833" viewBox="0 0 20.833 20.833">
  <path id="Union" d="M4.688,0a.521.521,0,0,0-.521.521V4.167H.521a.521.521,0,1,0,0,1.042H4.167V8.854a.521.521,0,1,0,1.042,0V5.208H8.854a.521.521,0,1,0,0-1.042H5.208V.521A.521.521,0,0,0,4.688,0Z" transform="translate(5.729 5.729)"/>
  <path id="Combined_Shape" data-name="Combined Shape" d="M10.417,20.833A10.417,10.417,0,1,1,20.833,10.417,10.428,10.428,0,0,1,10.417,20.833Zm0-19.792a9.375,9.375,0,1,0,9.375,9.375A9.386,9.386,0,0,0,10.417,1.042Z"/>
</svg>
