<svg id="Light_1px_archive" data-name="Light 1px/archive" xmlns="http://www.w3.org/2000/svg" width="20.833" height="20.833" viewBox="0 0 20.833 20.833">
  <g id="Group">
    <path id="Combined_Shape" data-name="Combined Shape" d="M17.708,20.833H3.125A3.128,3.128,0,0,1,0,17.708V5.209A2.541,2.541,0,0,1,.226,4.166,2.5,2.5,0,0,1,.737,3.43L3.251.915A3.1,3.1,0,0,1,5.461,0h9.911a3.1,3.1,0,0,1,2.21.915L20.1,3.43a2.515,2.515,0,0,1,.736,1.778v12.5A3.128,3.128,0,0,1,17.708,20.833ZM1.042,5.209v12.5a2.085,2.085,0,0,0,2.083,2.083H17.708a2.085,2.085,0,0,0,2.083-2.083V5.209ZM5.461,1.042a2.069,2.069,0,0,0-1.473.61L1.473,4.166H19.36L16.845,1.652a2.094,2.094,0,0,0-1.473-.61Z" transform="translate(0 0)"/>
    <path id="Union" d="M3.127,0a.521.521,0,0,0-.521.521V6.035L.889,4.318a.521.521,0,0,0-.737.737l1.87,1.87a1.563,1.563,0,0,0,2.21,0L6.1,5.058a.521.521,0,0,0-.737-.737L3.648,6.035V.521A.521.521,0,0,0,3.127,0Z" transform="translate(7.292 8.854)"/>
  </g>
</svg>
