<svg id="Group_2927" data-name="Group 2927" xmlns="http://www.w3.org/2000/svg" width="25" height="25" viewBox="0 0 25 25">
  <rect id="Light_1px_attachment_background" data-name="Light 1px/attachment background" width="25" height="25" fill="#fff" opacity="0"/>
  <path id="Path_85_Stroke_" data-name="Path 85 (Stroke)" d="M11.559,3.835,5.666,9.728a1.562,1.562,0,0,0,2.21,2.21l5.893-5.893a.521.521,0,0,1,.737.737L8.612,12.674A2.6,2.6,0,0,1,4.929,8.991L10.822,3.1a4.687,4.687,0,0,1,6.629,6.629l-5.893,5.893A6.771,6.771,0,0,1,1.983,6.045L7.876.153a.521.521,0,1,1,.737.737L2.72,6.782a5.729,5.729,0,0,0,8.1,8.1l5.893-5.893a3.646,3.646,0,0,0-5.156-5.156Z" transform="translate(3.133 3.727)" fill="#e2875e"/>
</svg>
