<svg id="Light_1px_bold" data-name="Light 1px/bold" xmlns="http://www.w3.org/2000/svg" width="25" height="25" viewBox="0 0 25 25">
  <rect id="Light_1px_bold_background" data-name="Light 1px/bold background" width="25" height="25" fill="none"/>
  <path id="Combined_Shape" data-name="Combined Shape" d="M8.333,18.75H3.385A3.389,3.389,0,0,1,0,15.365V3.409A3.413,3.413,0,0,1,3.409,0h4.4a4.688,4.688,0,0,1,2.433,8.7A5.209,5.209,0,0,1,8.333,18.75ZM1.042,9.375v5.99a2.346,2.346,0,0,0,2.344,2.344H8.333a4.167,4.167,0,0,0,0-8.333ZM3.409,1.042A2.37,2.37,0,0,0,1.042,3.409V8.333H7.812a3.646,3.646,0,0,0,0-7.292Z" transform="translate(6.25 3.125)"/>
</svg>
