<svg id="Light_1px_briefcase" data-name="Light 1px/briefcase" xmlns="http://www.w3.org/2000/svg" width="25" height="25" viewBox="0 0 25 25">
  <rect id="Light_1px_briefcase_background" data-name="Light 1px/briefcase background" width="25" height="25" fill="#fff0"/>
  <g id="Group" transform="translate(2.083 2.083)">
    <path id="Combined_Shape" data-name="Combined Shape" d="M17.708,20.833H3.125A3.128,3.128,0,0,1,0,17.708V6.25A3.129,3.129,0,0,1,3.125,3.125h2.6l.7-1.4A3.109,3.109,0,0,1,9.223,0H11.61a3.109,3.109,0,0,1,2.8,1.728l.7,1.4h2.6A3.129,3.129,0,0,1,20.833,6.25V17.708A3.128,3.128,0,0,1,17.708,20.833ZM3.125,4.166A2.086,2.086,0,0,0,1.042,6.25V17.708a2.085,2.085,0,0,0,2.083,2.083H17.708a2.085,2.085,0,0,0,2.083-2.083V6.25a2.086,2.086,0,0,0-2.083-2.084Zm6.1-3.125A2.074,2.074,0,0,0,7.359,2.194l-.466.931H13.94l-.466-.931A2.071,2.071,0,0,0,11.61,1.042Z"/>
    <path id="Combined_Shape-2" data-name="Combined Shape" d="M11.458,10.417H9.375a2.091,2.091,0,0,1-1.8-1.042H3.125A3.128,3.128,0,0,1,0,6.25V3.125A3.128,3.128,0,0,1,3.125,0H17.708a3.128,3.128,0,0,1,3.125,3.125V6.25a3.128,3.128,0,0,1-3.125,3.125H13.263A2.092,2.092,0,0,1,11.458,10.417ZM9.375,7.292a1.042,1.042,0,1,0,0,2.083h2.083a1.042,1.042,0,0,0,0-2.083Zm0-1.042h2.083a2.085,2.085,0,0,1,2.083,2.083h4.167A2.085,2.085,0,0,0,19.792,6.25V3.125a2.085,2.085,0,0,0-2.083-2.083H3.125A2.085,2.085,0,0,0,1.042,3.125V6.25A2.085,2.085,0,0,0,3.125,8.333H7.292A2.086,2.086,0,0,1,9.375,6.25Z" transform="translate(0 3.125)"/>
  </g>
</svg>
