<svg id="Light_1px_category" data-name="Light 1px/category" xmlns="http://www.w3.org/2000/svg" width="25" height="25" viewBox="0 0 25 25">
  <rect id="Light_1px_category_background" data-name="Light 1px/category background" width="25" height="25" fill="#fff" opacity="0"/>
  <path id="Combined_Shape" data-name="Combined Shape" d="M15.625,18.75H13.541a3.128,3.128,0,0,1-3.125-3.125V13.541a3.128,3.128,0,0,1,3.125-3.125h2.084a3.128,3.128,0,0,1,3.125,3.125v2.084A3.128,3.128,0,0,1,15.625,18.75Zm-2.084-7.292a2.085,2.085,0,0,0-2.083,2.083v2.084a2.085,2.085,0,0,0,2.083,2.083h2.084a2.085,2.085,0,0,0,2.083-2.083V13.541a2.085,2.085,0,0,0-2.083-2.083ZM5.209,18.75H3.125A3.128,3.128,0,0,1,0,15.625V13.541a3.128,3.128,0,0,1,3.125-3.125H5.209a3.128,3.128,0,0,1,3.125,3.125v2.084A3.128,3.128,0,0,1,5.209,18.75ZM3.125,11.458a2.085,2.085,0,0,0-2.083,2.083v2.084a2.085,2.085,0,0,0,2.083,2.083H5.209a2.085,2.085,0,0,0,2.083-2.083V13.541a2.085,2.085,0,0,0-2.083-2.083Zm12.5-3.125H13.541a3.128,3.128,0,0,1-3.125-3.125V3.125A3.128,3.128,0,0,1,13.541,0h2.084A3.128,3.128,0,0,1,18.75,3.125V5.209A3.128,3.128,0,0,1,15.625,8.333ZM13.541,1.042a2.085,2.085,0,0,0-2.083,2.083V5.209a2.085,2.085,0,0,0,2.083,2.083h2.084a2.085,2.085,0,0,0,2.083-2.083V3.125a2.085,2.085,0,0,0-2.083-2.083ZM5.209,8.333H3.125A3.128,3.128,0,0,1,0,5.209V3.125A3.128,3.128,0,0,1,3.125,0H5.209A3.128,3.128,0,0,1,8.333,3.125V5.209A3.128,3.128,0,0,1,5.209,8.333ZM3.125,1.042A2.085,2.085,0,0,0,1.042,3.125V5.209A2.085,2.085,0,0,0,3.125,7.292H5.209A2.085,2.085,0,0,0,7.292,5.209V3.125A2.085,2.085,0,0,0,5.209,1.042Z" transform="translate(3.125 3.125)"/>
</svg>
