<svg id="Group" xmlns="http://www.w3.org/2000/svg" width="18.75" height="18.75" viewBox="0 0 18.75 18.75">
  <path id="Combined_Shape" data-name="Combined Shape" d="M15.625,18.75H3.125A3.128,3.128,0,0,1,0,15.625V3.125A3.128,3.128,0,0,1,3.125,0h12.5A3.128,3.128,0,0,1,18.75,3.125v12.5A3.128,3.128,0,0,1,15.625,18.75ZM3.125,1.042A2.085,2.085,0,0,0,1.042,3.125v12.5a2.085,2.085,0,0,0,2.083,2.083h12.5a2.085,2.085,0,0,0,2.083-2.083V3.125a2.085,2.085,0,0,0-2.083-2.083Z"/>
  <path id="Vector_408_Stroke_" data-name="Vector 408 (Stroke)" d="M9.743.889,4.23,6.4a1.562,1.562,0,0,1-2.21,0L.153,4.535A.521.521,0,0,1,.889,3.8L2.757,5.666a.521.521,0,0,0,.737,0L9.007.153a.521.521,0,0,1,.737.737Z" transform="translate(4.167 5.729)"/>
</svg>
