<svg id="Light_1px_chevron_double_backward" data-name="Light 1px/chevron_double_backward" xmlns="http://www.w3.org/2000/svg" width="25" height="25" viewBox="0 0 25 25">
  <rect id="Light_1px_chevron_double_backward_background" data-name="Light 1px/chevron_double_backward background" width="25" height="25" fill="#fff0"/>
  <g id="Group" transform="translate(5.119 5.208)">
    <path id="Vector_474_Stroke_" data-name="Vector 474 (Stroke)" d="M7.228,13.694,1.194,7.66a.521.521,0,0,1,0-.737L7.228.889A.521.521,0,0,0,6.492.153L.458,6.187a1.563,1.563,0,0,0,0,2.21l6.034,6.034a.521.521,0,0,0,.737-.737Z" transform="translate(0 0)"/>
    <path id="Vector_475_Stroke_" data-name="Vector 475 (Stroke)" d="M7.228,13.694,1.194,7.66a.521.521,0,0,1,0-.737L7.228.889A.521.521,0,0,0,6.492.153L.458,6.187a1.563,1.563,0,0,0,0,2.21l6.034,6.034a.521.521,0,0,0,.737-.737Z" transform="translate(6.51 0)"/>
  </g>
</svg>
