<svg id="Light_1px_close_circled" data-name="Light 1px/close_circled" xmlns="http://www.w3.org/2000/svg" width="20.833" height="20.833" viewBox="0 0 20.833 20.833">
  <g id="Group">
    <path id="Union" d="M.153.153a.521.521,0,0,0,0,.737L2.909,3.646.153,6.4a.521.521,0,0,0,.737.737L3.646,4.382,6.4,7.139A.521.521,0,0,0,7.139,6.4L4.382,3.646,7.139.889A.521.521,0,0,0,6.4.153L3.646,2.909.889.153A.521.521,0,0,0,.153.153Z" transform="translate(6.771 6.771)"/>
    <path id="Combined_Shape" data-name="Combined Shape" d="M10.417,20.833A10.417,10.417,0,1,1,20.833,10.417,10.428,10.428,0,0,1,10.417,20.833Zm0-19.792a9.375,9.375,0,1,0,9.375,9.375A9.386,9.386,0,0,0,10.417,1.042Z"/>
  </g>
</svg>
