<svg xmlns="http://www.w3.org/2000/svg" width="18.75" height="18.75" viewBox="0 0 18.75 18.75">
  <path id="Combined_Shape" data-name="Combined Shape" d="M15.625,18.75H7.292a3.129,3.129,0,0,1-3.126-3.125V14.584H3.125A3.129,3.129,0,0,1,0,11.458V3.125A3.128,3.128,0,0,1,3.125,0h8.333a3.129,3.129,0,0,1,3.126,3.125V4.166h1.042A3.129,3.129,0,0,1,18.75,7.292v8.333A3.128,3.128,0,0,1,15.625,18.75ZM7.292,5.209A2.085,2.085,0,0,0,5.209,7.292v8.333a2.085,2.085,0,0,0,2.083,2.083h8.333a2.085,2.085,0,0,0,2.083-2.083V7.292a2.085,2.085,0,0,0-2.083-2.083ZM3.125,1.042A2.085,2.085,0,0,0,1.042,3.125v8.333a2.085,2.085,0,0,0,2.083,2.083H4.166V7.292A3.129,3.129,0,0,1,7.292,4.166h6.249V3.125a2.085,2.085,0,0,0-2.083-2.083Z"/>
</svg>
