<svg id="Light_1px_database" data-name="Light 1px/database" xmlns="http://www.w3.org/2000/svg" width="25" height="25" viewBox="0 0 25 25">
  <rect id="Light_1px_database_background" data-name="Light 1px/database background" width="25" height="25" fill="#fff0"/>
  <path id="Combined_Shape" data-name="Combined Shape" d="M9.375,18.75a17.006,17.006,0,0,1-6.66-1.2C.964,16.78,0,15.725,0,14.584V4.166C.071,3.046,1.076,2,2.832,1.216A16.535,16.535,0,0,1,9.375,0a16.535,16.535,0,0,1,6.543,1.216c1.757.783,2.762,1.83,2.828,2.95l0,10.417c0,1.141-.964,2.2-2.715,2.97A17.006,17.006,0,0,1,9.375,18.75ZM1.042,11.328v3.256c0,.328.2,1.182,2.094,2.018a15.952,15.952,0,0,0,6.239,1.107A15.952,15.952,0,0,0,15.614,16.6c.63-.278,2.094-1.032,2.094-2.018V11.328c-1.579,1.366-4.773,2.213-8.333,2.213S2.621,12.693,1.042,11.328Zm0-5.128V9.375c0,.328.2,1.181,2.094,2.018A15.97,15.97,0,0,0,9.375,12.5a15.97,15.97,0,0,0,6.239-1.106c.63-.279,2.094-1.034,2.094-2.018V6.2C16.14,7.516,12.946,8.333,9.375,8.333S2.609,7.516,1.042,6.2ZM9.375,1.042A15.346,15.346,0,0,0,3.179,2.2C1.2,3.109,1.042,4.026,1.042,4.285c0,.319.206,1.149,2.109,1.952A16.6,16.6,0,0,0,9.375,7.292,16.6,16.6,0,0,0,15.6,6.237c1.9-.8,2.109-1.632,2.109-1.952,0-.259-.154-1.176-2.137-2.083A15.346,15.346,0,0,0,9.375,1.042Z" transform="translate(3.125 3.125)"/>
</svg>
