<svg id="Light_1px_edit" data-name="Light 1px/edit" xmlns="http://www.w3.org/2000/svg" width="19.044" height="19.043" viewBox="0 0 19.044 19.043">
  <path id="Combined_Shape" data-name="Combined Shape" d="M1.038,19.043A1.042,1.042,0,0,1,.02,17.8l1.105-5.525a1.032,1.032,0,0,1,.285-.532L12.236.915a3.126,3.126,0,0,1,4.419,0l1.473,1.474a3.125,3.125,0,0,1,0,4.419L7.3,17.633a1.039,1.039,0,0,1-.532.285l-5.524,1.1A1.065,1.065,0,0,1,1.038,19.043ZM10.395,4.23h0L2.147,12.477,1.042,18,6.566,16.9l8.248-8.247L10.395,4.23Zm4.05-3.188a2.07,2.07,0,0,0-1.473.61L11.131,3.493,15.55,7.912l1.842-1.841a2.088,2.088,0,0,0,0-2.947L15.919,1.652A2.07,2.07,0,0,0,14.445,1.041Z"/>
</svg>
