<svg id="Light_1px_eye_dropper" data-name="Light 1px/eye_dropper" xmlns="http://www.w3.org/2000/svg" width="25" height="25" viewBox="0 0 25 25">
  <rect id="Light_1px_eye_dropper_background" data-name="Light 1px/eye_dropper background" width="25" height="25" fill="#fff0"/>
  <path id="Combined_Shape" data-name="Combined Shape" d="M2.819,18.4a2.067,2.067,0,0,1-1.472-.61l-.737-.736a2.086,2.086,0,0,1,0-2.947,3.145,3.145,0,0,0,.884-1.768l.073-.516a3.144,3.144,0,0,1,.884-1.767L6.906,5.6a2.615,2.615,0,0,1,.332-3.278,2.6,2.6,0,0,1,3.277-.331l.773-.773a4.166,4.166,0,1,1,5.892,5.892l-.773.773A2.6,2.6,0,0,1,12.8,11.5L8.343,15.952a3.144,3.144,0,0,1-1.767.884l-.516.074a3.145,3.145,0,0,0-1.768.883A2.07,2.07,0,0,1,2.819,18.4ZM7.607,6.377h0L3.187,10.8a2.1,2.1,0,0,0-.59,1.178l-.073.516a4.192,4.192,0,0,1-1.178,2.357,1.043,1.043,0,0,0,0,1.473l.736.737a1.042,1.042,0,0,0,1.474,0,4.192,4.192,0,0,1,2.357-1.178l.516-.074a2.1,2.1,0,0,0,1.178-.589L12.026,10.8,7.607,6.377ZM9.08,2.6A1.562,1.562,0,0,0,7.974,5.272l5.156,5.156A1.563,1.563,0,0,0,15.54,8.462l-.47-.71,1.375-1.376a3.125,3.125,0,0,0-4.419-4.419L10.651,3.333,9.94,2.862A1.551,1.551,0,0,0,9.08,2.6Z" transform="translate(3.42 3.177)"/>
</svg>
