<svg id="Light_1px_files" data-name="Light 1px/files" xmlns="http://www.w3.org/2000/svg" width="25" height="25" viewBox="0 0 25 25">
  <rect id="Light_1px_files_background" data-name="Light 1px/files background" width="25" height="25" fill="#fff"/>
  <path id="Combined_Shape" data-name="Combined Shape" d="M11.458,20.833H3.125A3.128,3.128,0,0,1,0,17.709V7.292A3.129,3.129,0,0,1,3.125,4.166H4.166V3.125A3.129,3.129,0,0,1,7.292,0h6c.08,0,.165,0,.252.01V0a2.542,2.542,0,0,1,1.042.226,2.5,2.5,0,0,1,.736.511L18.013,3.43a2.5,2.5,0,0,1,.511.736,2.541,2.541,0,0,1,.226,1.042h-.01c.007.094.01.177.01.252v8.08a3.129,3.129,0,0,1-3.125,3.126H14.584v1.042A3.129,3.129,0,0,1,11.458,20.833ZM3.125,5.209A2.085,2.085,0,0,0,1.042,7.292V17.709a2.085,2.085,0,0,0,2.083,2.083h8.333a2.085,2.085,0,0,0,2.083-2.083V16.667H7.292a3.129,3.129,0,0,1-3.126-3.126V5.209ZM7.292,1.042A2.085,2.085,0,0,0,5.209,3.125V13.541a2.086,2.086,0,0,0,2.083,2.084h8.333a2.086,2.086,0,0,0,2.083-2.084V5.461a2.065,2.065,0,0,0-.016-.252H15.625a2.086,2.086,0,0,1-2.084-2.084V1.058a2.073,2.073,0,0,0-.252-.016Zm7.292.451V3.125a1.043,1.043,0,0,0,1.042,1.042h1.632a2.05,2.05,0,0,0-.159-.178L14.762,1.652A2.032,2.032,0,0,0,14.584,1.493Z" transform="translate(3.125 2.083)"/>
</svg>
