<svg id="Light_1px_image" data-name="Light 1px/image" xmlns="http://www.w3.org/2000/svg" width="20.833" height="20.833" viewBox="0 0 20.833 20.833">
  <path id="Shape" d="M17.708,20.833H3.125A3.125,3.125,0,0,1,.006,17.892L0,17.708V3.125A3.125,3.125,0,0,1,2.941.006L3.125,0H17.708a3.127,3.127,0,0,1,3.12,2.941l0,.184V17.708a3.124,3.124,0,0,1-.733,2.011l-.182.2a3.125,3.125,0,0,1-2,.908ZM6.623,7.872A2.064,2.064,0,0,0,5.137,8.5l-.114.126L1.042,13.4v4.311a2.091,2.091,0,0,0,1.928,2.078l.156.006H17.708a2.069,2.069,0,0,0,.5-.061l.157-.046L8.158,8.547A2.061,2.061,0,0,0,6.623,7.872Zm0-1.042a3.089,3.089,0,0,1,2.3,1.014L19.252,19.108a2.081,2.081,0,0,0,.54-1.4V3.125a2.085,2.085,0,0,0-2.083-2.083H3.125A2.085,2.085,0,0,0,1.042,3.125v8.647l3.18-3.817A3.118,3.118,0,0,1,6.623,6.83Zm9,.461a2.084,2.084,0,1,1,2.083-2.083A2.086,2.086,0,0,1,15.625,7.292Zm0-3.126a1.042,1.042,0,1,0,1.042,1.042A1.043,1.043,0,0,0,15.625,4.166Z"/>
</svg>
