<svg xmlns="http://www.w3.org/2000/svg" width="16.667" height="20.833" viewBox="0 0 16.667 20.833">
  <path id="Combined_Shape" data-name="Combined Shape" d="M16.146,20.833H.521a.521.521,0,1,1,0-1.042h.52V18.335a8.28,8.28,0,0,1,1.594-4.9L4.83,10.417,2.635,7.4A8.28,8.28,0,0,1,1.042,2.5V1.042H.521A.521.521,0,1,1,.521,0H16.146a.521.521,0,1,1,0,1.042h-.52V2.5a8.285,8.285,0,0,1-1.594,4.9l-2.195,3.017,2.195,3.017a8.285,8.285,0,0,1,1.594,4.9v1.457h.52a.521.521,0,1,1,0,1.042ZM8.333,15.271a3.108,3.108,0,0,1,2.65,1.469l1.907,3.052h1.693V18.335a7.243,7.243,0,0,0-1.395-4.288l-2.261-3.109H5.738l-2.26,3.109a7.243,7.243,0,0,0-1.395,4.288v1.457H3.776L5.683,16.74A3.108,3.108,0,0,1,8.333,15.271Zm0,1.042a2.072,2.072,0,0,0-1.767.979L5,19.792h6.658l-1.563-2.5A2.071,2.071,0,0,0,8.333,16.313ZM3.466,6.771l.012.017L5.738,9.9h5.189l2.261-3.109.012-.017ZM2.083,1.042V2.5a7.329,7.329,0,0,0,.755,3.231h10.99A7.33,7.33,0,0,0,14.584,2.5V1.042Z"/>
</svg>
