<svg id="Light_1px_inbox" data-name="Light 1px/inbox" xmlns="http://www.w3.org/2000/svg" width="20.833" height="18.75" viewBox="0 0 20.833 18.75">
  <path id="Combined_Shape" data-name="Combined Shape" d="M17.708,18.75H3.125A3.128,3.128,0,0,1,0,15.625V10.569a1.037,1.037,0,0,1,.044-.3L2.457,2.227A3.106,3.106,0,0,1,5.45,0h9.934a3.106,3.106,0,0,1,2.993,2.227l2.412,8.043a1.037,1.037,0,0,1,.044.3v5.056A3.128,3.128,0,0,1,17.708,18.75ZM1.042,11.458v4.167a2.085,2.085,0,0,0,2.083,2.083H17.708a2.085,2.085,0,0,0,2.083-2.083V11.458H14.185l-.751,1.5a1.046,1.046,0,0,1-.941.581H8.34A1.046,1.046,0,0,1,7.4,12.96l-.751-1.5ZM5.45,1.042A2.07,2.07,0,0,0,3.455,2.527l-2.367,7.89h5.56a1.036,1.036,0,0,1,.932.576l.751,1.5a.01.01,0,0,0,.009.006h4.153s.009,0,.009-.006l.751-1.5a1.038,1.038,0,0,1,.932-.576h5.56l-2.367-7.89a2.07,2.07,0,0,0-1.995-1.485Z"/>
</svg>
