<svg id="Group" xmlns="http://www.w3.org/2000/svg" width="20.833" height="20.833" viewBox="0 0 20.833 20.833">
  <path id="Combined_Shape" data-name="Combined Shape" d="M10.417,20.833A10.417,10.417,0,1,1,20.833,10.417,10.428,10.428,0,0,1,10.417,20.833Zm0-19.792a9.375,9.375,0,1,0,9.375,9.375A9.386,9.386,0,0,0,10.417,1.042Z"/>
  <path id="Path_51_Stroke_" data-name="Path 51 (Stroke)" d="M1.042.521V5.73A.521.521,0,1,1,0,5.73V.521a.521.521,0,0,1,1.042,0Z" transform="translate(9.896 8.854)"/>
  <path id="Ellipse_137" data-name="Ellipse 137" d="M.521,1.042A.521.521,0,1,1,1.042.521.521.521,0,0,1,.521,1.042Z" transform="translate(9.896 6.25)"/>
</svg>
