<svg id="Light_1px_justify" data-name="Light 1px/justify" xmlns="http://www.w3.org/2000/svg" width="25" height="25" viewBox="0 0 25 25">
  <rect id="Light_1px_justify_background" data-name="Light 1px/justify background" width="25" height="25" fill="#fff0"/>
  <g id="Group" transform="translate(3.646 5.729)">
    <path id="Vector_605_Stroke_" data-name="Vector 605 (Stroke)" d="M.521,0H17.188a.521.521,0,0,1,0,1.042H.521A.521.521,0,0,1,.521,0Z"/>
    <path id="Vector_606_Stroke_" data-name="Vector 606 (Stroke)" d="M.521,0H17.188a.521.521,0,0,1,0,1.042H.521A.521.521,0,0,1,.521,0Z" transform="translate(0 4.167)"/>
    <path id="Vector_607_Stroke_" data-name="Vector 607 (Stroke)" d="M.521,0H17.188a.521.521,0,0,1,0,1.042H.521A.521.521,0,0,1,.521,0Z" transform="translate(0 8.333)"/>
    <path id="Vector_608_Stroke_" data-name="Vector 608 (Stroke)" d="M.521,0H17.188a.521.521,0,0,1,0,1.042H.521A.521.521,0,0,1,.521,0Z" transform="translate(0 12.5)"/>
  </g>
</svg>
