<svg xmlns="http://www.w3.org/2000/svg" width="19.963" height="19.965" viewBox="0 0 19.963 19.965">
  <path id="Combined_Shape" data-name="Combined Shape" d="M9.016,19.965a3.1,3.1,0,0,1-2.209-.915L.913,13.157a3.129,3.129,0,0,1,0-4.419L8.736.915A3.145,3.145,0,0,1,10.945,0c.08,0,.161,0,.241.009L16.657.43a3.108,3.108,0,0,1,2.876,2.876l.421,5.471a3.12,3.12,0,0,1-.906,2.45L11.226,19.05A3.1,3.1,0,0,1,9.016,19.965ZM10.945,1.042a2.069,2.069,0,0,0-1.472.61L1.65,9.474a2.083,2.083,0,0,0,0,2.947l5.892,5.892a2.083,2.083,0,0,0,2.947,0l7.823-7.823a2.08,2.08,0,0,0,.6-1.633l-.421-5.471a2.072,2.072,0,0,0-1.917-1.917l-5.471-.421C11.053,1.044,11,1.042,10.945,1.042ZM9.016,14.415a.518.518,0,0,1-.368-.153L5.7,11.316a.521.521,0,0,1,.737-.736l2.947,2.946a.521.521,0,0,1-.368.889ZM13.8,7.2a1.039,1.039,0,1,1,.735-.3A1.033,1.033,0,0,1,13.8,7.2Z"/>
</svg>
