<svg id="Light_1px_design" data-name="Light 1px/design" xmlns="http://www.w3.org/2000/svg" width="25" height="25" viewBox="0 0 25 25">
  <rect id="Light_1px_design_background" data-name="Light 1px/design background" width="25" height="25" fill="#fff0"/>
  <path id="Combined_Shape" data-name="Combined Shape" d="M14.908,20.981a3.1,3.1,0,0,1-2.21-.915L9.773,17.141,7.482,19.433a1.039,1.039,0,0,1-.532.285l-5.524,1.1a1.065,1.065,0,0,1-.209.021A1.042,1.042,0,0,1,.2,19.6L1.3,14.073a1.044,1.044,0,0,1,.284-.533l2.292-2.291L.913,8.281a3.13,3.13,0,0,1,0-4.419L3.86.915a3.126,3.126,0,0,1,4.419,0l2.968,2.968,2.641-2.641a3.125,3.125,0,0,1,4.419,0L19.78,2.715a3.125,3.125,0,0,1,0,4.419L17.139,9.775,20.064,12.7a3.129,3.129,0,0,1,0,4.419l-2.947,2.947A3.1,3.1,0,0,1,14.908,20.981Zm-1.473-5.119a.521.521,0,0,1,.368.889L12.33,18.225l1.105,1.1a2.082,2.082,0,0,0,2.946,0l2.947-2.947a2.082,2.082,0,0,0,0-2.946L16.4,10.512,10.51,16.405l1.084,1.083,1.473-1.473A.518.518,0,0,1,13.435,15.862ZM12.047,4.556h0L2.326,14.277,1.222,19.8,6.745,18.7l9.721-9.721L12.047,4.556ZM5.332,6.287a.521.521,0,0,1,.368.889l-2.21,2.21,1.127,1.126L10.51,4.62,7.542,1.652a2.082,2.082,0,0,0-2.946,0L1.65,4.6a2.082,2.082,0,0,0,0,2.946l1.1,1.105,2.21-2.21A.518.518,0,0,1,5.332,6.287ZM16.1,1.369a2.07,2.07,0,0,0-1.473.61L12.784,3.82,17.2,8.239,19.044,6.4a2.086,2.086,0,0,0,0-2.947L17.571,1.979A2.067,2.067,0,0,0,16.1,1.369Z" transform="translate(2.011 2.01)"/>
</svg>
