<svg id="Light_1px_clipboard" data-name="Light 1px/clipboard" xmlns="http://www.w3.org/2000/svg" width="25" height="25" viewBox="0 0 25 25">
  <rect id="Light_1px_clipboard_background" data-name="Light 1px/clipboard background" width="25" height="25" fill="#fff0"/>
  <g id="Group" transform="translate(3.125 1.042)">
    <path id="Combined_Shape" data-name="Combined Shape" d="M15.625,21.875H3.125A3.128,3.128,0,0,1,0,18.75V5.209A3.129,3.129,0,0,1,3.125,2.083H7.292a2.083,2.083,0,1,1,4.166,0h4.167A3.129,3.129,0,0,1,18.75,5.209V18.75A3.128,3.128,0,0,1,15.625,21.875ZM3.125,3.125A2.086,2.086,0,0,0,1.042,5.209V18.75a2.085,2.085,0,0,0,2.083,2.083h12.5a2.085,2.085,0,0,0,2.083-2.083V5.209a2.086,2.086,0,0,0-2.083-2.084H13.541V5.209A1.043,1.043,0,0,1,12.5,6.25H6.25A1.043,1.043,0,0,1,5.209,5.209V3.125Zm3.126,0V5.209H12.5V3.125H11.458a1.043,1.043,0,0,1-1.042-1.042,1.042,1.042,0,1,0-2.083,0A1.043,1.043,0,0,1,7.292,3.125Z"/>
    <path id="Vector_391_Stroke_" data-name="Vector 391 (Stroke)" d="M.521,0H8.854a.521.521,0,1,1,0,1.042H.521A.521.521,0,0,1,.521,0Z" transform="translate(4.688 9.896)"/>
    <path id="Vector_392_Stroke_" data-name="Vector 392 (Stroke)" d="M.521,0H4.688a.521.521,0,0,1,0,1.042H.521A.521.521,0,0,1,.521,0Z" transform="translate(4.688 14.063)"/>
  </g>
</svg>
