<svg id="Light_1px_hybrid_view" data-name="Light 1px/hybrid_view" xmlns="http://www.w3.org/2000/svg" width="25" height="25" viewBox="0 0 25 25">
  <rect id="Light_1px_hybrid_view_background" data-name="Light 1px/hybrid_view background" width="25" height="25" fill="#fff0"/>
  <g id="Group" transform="translate(2.604 4.167)">
    <path id="Combined_Shape" data-name="Combined Shape" d="M7.292,16.667H3.125A3.129,3.129,0,0,1,0,13.541V3.125A3.128,3.128,0,0,1,3.125,0H7.292a3.128,3.128,0,0,1,3.125,3.125V13.541A3.129,3.129,0,0,1,7.292,16.667ZM3.125,1.042A2.085,2.085,0,0,0,1.042,3.125V13.541a2.086,2.086,0,0,0,2.083,2.084H7.292a2.086,2.086,0,0,0,2.083-2.084V3.125A2.085,2.085,0,0,0,7.292,1.042Z" transform="translate(9.896)"/>
    <path id="Vector_567_Stroke_" data-name="Vector 567 (Stroke)" d="M.521,0h6.25a.521.521,0,1,1,0,1.042H.521A.521.521,0,0,1,.521,0Z" transform="translate(0 1.562)"/>
    <path id="Vector_568_Stroke_" data-name="Vector 568 (Stroke)" d="M.521,0h6.25a.521.521,0,1,1,0,1.042H.521A.521.521,0,0,1,.521,0Z" transform="translate(0 5.729)"/>
    <path id="Vector_569_Stroke_" data-name="Vector 569 (Stroke)" d="M.521,0h6.25a.521.521,0,1,1,0,1.042H.521A.521.521,0,0,1,.521,0Z" transform="translate(0 9.896)"/>
    <path id="Vector_570_Stroke_" data-name="Vector 570 (Stroke)" d="M.521,0h6.25a.521.521,0,1,1,0,1.042H.521A.521.521,0,0,1,.521,0Z" transform="translate(0 14.063)"/>
  </g>
</svg>
