<svg id="Light_1px_link" data-name="Light 1px/link" xmlns="http://www.w3.org/2000/svg" width="19.792" height="9.375" viewBox="0 0 19.792 9.375">
  <g id="Group">
    <path id="Rectangle_104_Stroke_" data-name="Rectangle 104 (Stroke)" d="M4.688,0H7.812a.521.521,0,1,1,0,1.042H4.688a3.646,3.646,0,1,0,0,7.292H7.812a.521.521,0,1,1,0,1.042H4.688A4.688,4.688,0,0,1,4.688,0Z"/>
    <path id="Rectangle_105_Stroke_" data-name="Rectangle 105 (Stroke)" d="M.521,0H3.646a4.688,4.688,0,0,1,0,9.375H.521a.521.521,0,0,1,0-1.042H3.646a3.646,3.646,0,1,0,0-7.292H.521A.521.521,0,0,1,.521,0Z" transform="translate(11.458)"/>
    <path id="Path_61_Stroke_" data-name="Path 61 (Stroke)" d="M.521,0h6.25a.521.521,0,1,1,0,1.042H.521A.521.521,0,0,1,.521,0Z" transform="translate(6.25 4.167)"/>
  </g>
</svg>
