<svg xmlns="http://www.w3.org/2000/svg" width="25" height="25" viewBox="0 0 25 25">
  <g id="Light_1px_more_vertical" data-name="Light 1px/more_vertical" opacity="0.5">
    <rect id="Light_1px_more_vertical_background" data-name="Light 1px/more_vertical background" width="25" height="25" fill="#fff" opacity="0"/>
    <path id="Combined_Shape" data-name="Combined Shape" d="M2.6,20.833a2.6,2.6,0,1,1,2.6-2.6A2.607,2.607,0,0,1,2.6,20.833Zm0-4.166a1.562,1.562,0,1,0,1.562,1.562A1.564,1.564,0,0,0,2.6,16.667Zm0-3.646a2.6,2.6,0,1,1,2.6-2.6A2.607,2.607,0,0,1,2.6,13.021Zm0-4.167a1.563,1.563,0,1,0,1.562,1.563A1.565,1.565,0,0,0,2.6,8.854Zm0-3.645a2.6,2.6,0,1,1,2.6-2.6A2.607,2.607,0,0,1,2.6,5.209Zm0-4.167A1.562,1.562,0,1,0,4.166,2.6,1.565,1.565,0,0,0,2.6,1.042Z" transform="translate(6.395 2.084)"/>
    <path id="Combined_Shape-2" data-name="Combined Shape" d="M2.6,20.833a2.6,2.6,0,1,1,2.6-2.6A2.607,2.607,0,0,1,2.6,20.833Zm0-4.166a1.562,1.562,0,1,0,1.562,1.562A1.564,1.564,0,0,0,2.6,16.667Zm0-3.646a2.6,2.6,0,1,1,2.6-2.6A2.607,2.607,0,0,1,2.6,13.021Zm0-4.167a1.563,1.563,0,1,0,1.562,1.563A1.565,1.565,0,0,0,2.6,8.854Zm0-3.645a2.6,2.6,0,1,1,2.6-2.6A2.607,2.607,0,0,1,2.6,5.209Zm0-4.167A1.562,1.562,0,1,0,4.166,2.6,1.565,1.565,0,0,0,2.6,1.042Z" transform="translate(13.396 2.083)"/>
  </g>
</svg>
