<svg id="Light_1px_multiselect" data-name="Light 1px/multiselect" xmlns="http://www.w3.org/2000/svg" width="25" height="25" viewBox="0 0 25 25">
  <rect id="Light_1px_multiselect_background" data-name="Light 1px/multiselect background" width="25" height="25" fill="#fff" opacity="0"/>
  <g id="Group" transform="translate(2.083 2.083)">
    <path id="Combined_Shape" data-name="Combined Shape" d="M13.541,20.833H3.125A3.128,3.128,0,0,1,0,17.708V7.292A3.129,3.129,0,0,1,3.125,4.166H4.166V3.125A3.129,3.129,0,0,1,7.292,0H17.708a3.128,3.128,0,0,1,3.125,3.125V13.541a3.129,3.129,0,0,1-3.125,3.126H16.667v1.042A3.129,3.129,0,0,1,13.541,20.833ZM3.125,5.209A2.085,2.085,0,0,0,1.042,7.292V17.708a2.085,2.085,0,0,0,2.083,2.083H13.541a2.086,2.086,0,0,0,2.084-2.083V16.667H7.292a3.129,3.129,0,0,1-3.126-3.126V5.209ZM7.292,1.042A2.085,2.085,0,0,0,5.209,3.125V13.541a2.086,2.086,0,0,0,2.083,2.084H17.708a2.086,2.086,0,0,0,2.083-2.084V3.125a2.085,2.085,0,0,0-2.083-2.083Z" fill="#e2875e"/>
    <path id="Vector_408_Stroke_" data-name="Vector 408 (Stroke)" d="M7.139.889,2.972,5.056a.521.521,0,0,1-.737,0L.153,2.972a.521.521,0,1,1,.737-.737L2.6,3.951,6.4.153a.521.521,0,0,1,.737.737Z" transform="translate(8.854 5.729)" fill="#e2875e"/>
  </g>
</svg>
