<svg id="Light_1px_note" data-name="Light 1px/note" xmlns="http://www.w3.org/2000/svg" width="25" height="25" viewBox="0 0 25 25">
  <rect id="Light_1px_note_background" data-name="Light 1px/note background" width="25" height="25" fill="#fff0"/>
  <g id="Group" transform="translate(3.646 2.604)">
    <path id="Rectangle_193_Stroke_" data-name="Rectangle 193 (Stroke)" d="M1.042,2.6V17.188A1.563,1.563,0,0,0,2.6,18.75H15.1a1.563,1.563,0,0,0,1.562-1.562V9.9a.521.521,0,1,1,1.042,0v7.292a2.6,2.6,0,0,1-2.6,2.6H2.6a2.6,2.6,0,0,1-2.6-2.6V2.6A2.6,2.6,0,0,1,2.6,0h6.25a.521.521,0,1,1,0,1.042H2.6A1.563,1.563,0,0,0,1.042,2.6Z"/>
    <path id="Combined_Shape" data-name="Combined Shape" d="M1.039,13.988A1.043,1.043,0,0,1,.01,12.8L.5,9.361a1.048,1.048,0,0,1,.3-.589L8.653.915a3.125,3.125,0,1,1,4.419,4.419L5.216,13.191a1.049,1.049,0,0,1-.59.294l-3.437.491A1.068,1.068,0,0,1,1.039,13.988ZM7.549,3.493h0L1.533,9.509l-.491,3.437,3.438-.491,6.015-6.015L7.549,3.493Zm3.314-2.452a2.07,2.07,0,0,0-1.473.61L8.285,2.757,11.231,5.7l1.1-1.1a2.084,2.084,0,0,0-1.472-3.557Z" transform="translate(3.958 0.774)"/>
  </g>
</svg>
