<svg id="Light_1px_notification" data-name="Light 1px/notification" xmlns="http://www.w3.org/2000/svg" width="25" height="25" viewBox="0 0 25 25">
  <rect id="Light_1px_notification_background" data-name="Light 1px/notification background" width="25" height="25" fill="#fff0"/>
  <path id="Combined_Shape" data-name="Combined Shape" d="M10.417,20.833A4.171,4.171,0,0,1,6.25,16.667H1.462A1.463,1.463,0,0,1,.446,14.152l1.072-1.036a2.092,2.092,0,0,0,.636-1.5l-.01-3.284A8.3,8.3,0,1,1,18.75,8.3v3.335a2.069,2.069,0,0,0,.61,1.473L20.4,14.152a1.474,1.474,0,0,1-1.042,2.515H14.584A4.172,4.172,0,0,1,10.417,20.833ZM7.292,16.667a3.125,3.125,0,1,0,6.249,0ZM10.447,1.042A7.261,7.261,0,0,0,3.187,8.325L3.2,11.609a3.141,3.141,0,0,1-.954,2.257L1.17,14.9a.421.421,0,0,0,.293.724h17.9a.432.432,0,0,0,.431-.432.425.425,0,0,0-.127-.3l-1.042-1.042a3.1,3.1,0,0,1-.915-2.21V8.3A7.269,7.269,0,0,0,10.447,1.042Z" transform="translate(2.083 2.083)"/>
</svg>
