<svg xmlns="http://www.w3.org/2000/svg" width="25" height="25" viewBox="0 0 25 25">
  <g id="Group_2940" data-name="Group 2940" transform="translate(-1229 -311)">
    <rect id="Rectangle_3717" data-name="Rectangle 3717" width="25" height="25" transform="translate(1229 311)" fill="#fff" opacity="0"/>
    <g id="Polygon_2" data-name="Polygon 2" transform="translate(1234 316)" fill="none">
      <path d="M6.606,1.789a1,1,0,0,1,1.789,0l5.882,11.764A1,1,0,0,1,13.382,15H1.618a1,1,0,0,1-.894-1.447Z" stroke="none"/>
      <path d="M 7.500000476837158 4.472125053405762 L 3.236064910888672 13.00000381469727 L 11.76393604278564 13.00000381469727 L 7.500000476837158 4.472125053405762 M 7.500000476837158 1.236065864562988 C 7.855082988739014 1.236065864562988 8.210165023803711 1.420329093933105 8.394430160522461 1.788853645324707 L 14.27639007568359 13.55278396606445 C 14.60884094238281 14.21768379211426 14.12535095214844 15.00000381469727 13.38197040557861 15.00000381469727 L 1.618030548095703 15.00000381469727 C 0.8746500015258789 15.00000381469727 0.3911600112915039 14.21768379211426 0.7236108779907227 13.55278396606445 L 6.605570793151855 1.788853645324707 C 6.789835929870605 1.420329093933105 7.144917964935303 1.236065864562988 7.500000476837158 1.236065864562988 Z" stroke="none" fill="#e2875e"/>
    </g>
  </g>
</svg>
