<svg xmlns="http://www.w3.org/2000/svg" width="25" height="25" viewBox="0 0 25 25">
  <g id="Group_2945" data-name="Group 2945" transform="translate(-1229 -536)">
    <g id="Light_1px_image" data-name="Light 1px/image" transform="translate(1229 536)">
      <rect id="Light_1px_image_background" data-name="Light 1px/image background" width="25" height="25" fill="#fff" opacity="0"/>
      <path id="Shape" d="M17,20H3A3,3,0,0,1,.005,17.176L0,17V3A3,3,0,0,1,2.823.005L3,0H17a3,3,0,0,1,3,2.823L20,3V17a3,3,0,0,1-.7,1.93l-.175.191a3,3,0,0,1-1.916.872ZM6.358,7.557a1.981,1.981,0,0,0-1.427.6l-.11.121L1,12.862V17a2.007,2.007,0,0,0,1.85,1.994L3,19H17a1.987,1.987,0,0,0,.482-.059l.151-.044L7.832,8.205A1.978,1.978,0,0,0,6.358,7.557Zm0-1a2.965,2.965,0,0,1,2.211.973l9.913,10.813A2,2,0,0,0,19,17V3a2,2,0,0,0-2-2H3A2,2,0,0,0,1,3v8.3L4.053,7.636A2.993,2.993,0,0,1,6.358,6.557ZM15,7a2,2,0,1,1,2-2A2,2,0,0,1,15,7Zm0-3a1,1,0,1,0,1,1A1,1,0,0,0,15,4Z" transform="translate(2.5 2.5)" fill="none" stroke="#e2875e" stroke-width="2"/>
    </g>
  </g>
</svg>
