<svg xmlns="http://www.w3.org/2000/svg" width="25" height="25" viewBox="0 0 25 25">
  <g id="Group_2938" data-name="Group 2938" transform="translate(-1229 -176)">
    <rect id="Light_1px_cursor_background" data-name="Light 1px/cursor background" width="25" height="25" transform="translate(1229 176)" fill="#fff" opacity="0"/>
    <path id="Combined_Shape" data-name="Combined Shape" d="M11.162,19.281a.463.463,0,0,1-.4-.248l-2.72-5.02c-.049.046-.1.1-.151.155L5.212,17.192a2.229,2.229,0,0,1-1.68.783A2.391,2.391,0,0,1,1.2,15.73l-1.187-13A2.54,2.54,0,0,1,.593.83,2.3,2.3,0,0,1,2.339,0,2.212,2.212,0,0,1,3.685.469l9.977,7.6a2.533,2.533,0,0,1,.931,2.5,2.392,2.392,0,0,1-1.75,1.937l-3.8.956a1.978,1.978,0,0,0-.2.062l2.72,5.02a.519.519,0,0,1,.047.376.489.489,0,0,1-.217.3A.444.444,0,0,1,11.162,19.281ZM2.335.995a1.382,1.382,0,0,0-1.047.5A1.524,1.524,0,0,0,.939,2.632l1.187,13a1.434,1.434,0,0,0,1.4,1.346,1.338,1.338,0,0,0,1.009-.47L7.21,13.487a3.211,3.211,0,0,1,1.623-1l3.8-.956a1.436,1.436,0,0,0,1.05-1.162,1.52,1.52,0,0,0-.558-1.5l-9.977-7.6A1.327,1.327,0,0,0,2.335.995Z" transform="translate(1234.625 179.002)" fill="none" stroke="#e2875e" stroke-width="1"/>
  </g>
</svg>
