<svg xmlns="http://www.w3.org/2000/svg" width="25" height="25" viewBox="0 0 25 25">
  <g id="Group_2944" data-name="Group 2944" transform="translate(-1229 -491)">
    <rect id="Light_1px_edit_background" data-name="Light 1px/edit background" width="25" height="25" transform="translate(1229 491)" fill="#fff" opacity="0"/>
    <path id="Combined_Shape" data-name="Combined Shape" d="M.974,17.853a.978.978,0,0,1-.955-1.168l1.036-5.179a.969.969,0,0,1,.266-.5L11.47.858a2.93,2.93,0,0,1,4.143,0l1.381,1.381a2.93,2.93,0,0,1,0,4.143L6.846,16.53a.975.975,0,0,1-.5.267L1.169,17.833A1,1,0,0,1,.974,17.853ZM9.744,3.966h0L2.012,11.7.977,16.876,6.156,15.84l7.732-7.732L9.744,3.966Zm3.8-2.989a1.939,1.939,0,0,0-1.381.572L10.435,3.274l4.143,4.143L16.3,5.692a1.956,1.956,0,0,0,0-2.762L14.923,1.548A1.94,1.94,0,0,0,13.542.976Z" transform="translate(1232.486 494.662)" fill="none" stroke="#e2875e" stroke-width="1"/>
  </g>
</svg>
