<svg xmlns="http://www.w3.org/2000/svg" width="25" height="25" viewBox="0 0 25 25">
  <g id="Group_2946" data-name="Group 2946" transform="translate(-1229 -581)">
    <rect id="Light_1px_ruler_background" data-name="Light 1px/ruler background" width="25" height="25" transform="translate(1229 581)" fill="#fff" opacity="0"/>
    <path id="Combined_Shape" data-name="Combined Shape" d="M5.8,19.212a2.969,2.969,0,0,1-2.11-.872l-2.814-2.8a2.97,2.97,0,0,1,0-4.209L12.128.106C12.2.036,12.249,0,12.28,0a.029.029,0,0,1,.025.013,7.291,7.291,0,0,1-.664,1.976l0,.012-.192.485.332-.627L12.831.807a1.994,1.994,0,0,1,2.814,0l2.813,2.806a1.982,1.982,0,0,1,0,2.8l-.525.523.011,0a5.573,5.573,0,0,1,1.35-.386c.1,0,.163.024.182.071.036.087-.07.254-.314.5L7.908,18.34A2.969,2.969,0,0,1,5.8,19.212ZM11.073,2.56,8.259,5.366l-2,2.024A10.281,10.281,0,0,1,4.391,9.184l-.006.006c-.378.368-.731.733-1.049,1.085l-.366.368-.219.216-.039.038-.017.016,0,0-.019.018-.021.021-.018.018L1.577,12.029a1.982,1.982,0,0,0,0,2.8l2.814,2.806a1.994,1.994,0,0,0,2.814,0l10.729-10.7-.021.01c-.737.27-4.52,1.618-6.614,1.618a2.584,2.584,0,0,1-.932-.138c-.44-.175-.517-.853-.236-2.073a27.644,27.644,0,0,1,1.167-3.5l.147-.374-.18.34Z" transform="translate(1231.411 584.377)" fill="none" stroke="#e2875e" stroke-width="2"/>
  </g>
</svg>
