<svg xmlns="http://www.w3.org/2000/svg" width="26" height="26" viewBox="0 0 26 26">
  <g id="Group_2943" data-name="Group 2943" transform="translate(-1228.5 -445.5)">
    <path id="Light_1px_arrow_forward_background" data-name="Light 1px/arrow_forward background" d="M0,0H25V25H0Z" transform="translate(1229 446)" fill="#fff" stroke="#e9edf2" stroke-width="1" opacity="0.002"/>
    <path id="Union" d="M9.714,12.369a.5.5,0,0,0,.677,0L15.937,7.2a1.276,1.276,0,0,0,0-1.894L10.391.131a.5.5,0,0,0-.677,0,.425.425,0,0,0,0,.631L15.119,5.8H.479a.448.448,0,1,0,0,.893H15.119L9.714,11.738A.425.425,0,0,0,9.714,12.369Z" transform="translate(1233.375 452.25)" fill="none" stroke="#e2875e" stroke-width="2"/>
  </g>
</svg>
