<svg id="Light_1px_play" data-name="Light 1px/play" xmlns="http://www.w3.org/2000/svg" width="25" height="25" viewBox="0 0 25 25">
  <rect id="Light_1px_play_background" data-name="Light 1px/play background" width="25" height="25" fill="#fff0"/>
  <path id="Combined_Shape" data-name="Combined Shape" d="M3.13,16.166h0A3.134,3.134,0,0,1,0,13.036V3.13A3.133,3.133,0,0,1,3.13,0,3.078,3.078,0,0,1,4.709.436L13.13,5.389a3.126,3.126,0,0,1,0,5.388L4.709,15.73A3.078,3.078,0,0,1,3.13,16.166Zm0-15.122a2.12,2.12,0,0,0-1.451.587,2.055,2.055,0,0,0-.636,1.5v9.907a2.089,2.089,0,0,0,2.087,2.086,2.052,2.052,0,0,0,1.052-.291L12.6,9.879a2.083,2.083,0,0,0,0-3.592L4.181,1.334A2.08,2.08,0,0,0,3.129,1.044Z" transform="translate(5.208 4.417)"/>
</svg>
