<svg id="Light_1px_privacy" data-name="Light 1px/privacy" xmlns="http://www.w3.org/2000/svg" width="25" height="25" viewBox="0 0 25 25">
  <rect id="Light_1px_privacy_background" data-name="Light 1px/privacy background" width="25" height="25" fill="#fff" opacity="0"/>
  <path id="Combined_Shape" data-name="Combined Shape" d="M9.375,19.465a2.655,2.655,0,0,1-1.1-.238,20.424,20.424,0,0,1-4.758-2.963c-.276-.236-.544-.484-.8-.737A8.244,8.244,0,0,1,0,9.663v-5.1A2.894,2.894,0,0,1,2.137,1.851L5.368-2.311A34.457,34.457,0,0,1,9.5-2.458a34.474,34.474,0,0,1,4.137.147l2.972,4.162A2.894,2.894,0,0,1,18.75,4.567v5.1a8.244,8.244,0,0,1-2.716,5.864c-.253.253-.521.5-.8.737a20.446,20.446,0,0,1-4.757,2.963A2.66,2.66,0,0,1,9.375,19.465Zm0-6.938a6.687,6.687,0,0,0-3.15.78,6.057,6.057,0,0,0-2.242,2.049,19.4,19.4,0,0,0,4.749,3.016,1.551,1.551,0,0,0,1.284,0,19.38,19.38,0,0,0,4.749-3.016A6.411,6.411,0,0,0,9.375,12.526Zm0-11.777a2.257,2.257,0,0,0-.659.1L2.466,2.756A1.929,1.929,0,0,0,1.041,4.567v5.1a7.211,7.211,0,0,0,2.2,4.972,7.456,7.456,0,0,1,6.131-3.062,7.454,7.454,0,0,1,6.13,3.062,7.207,7.207,0,0,0,2.2-4.972v-5.1a1.929,1.929,0,0,0-1.425-1.811L10.034.847A2.257,2.257,0,0,0,9.375.749Zm0,9.868A3.007,3.007,0,0,1,6.25,7.753,3.007,3.007,0,0,1,9.375,4.89,3.006,3.006,0,0,1,12.5,7.753,3.006,3.006,0,0,1,9.375,10.617Zm0-4.773A2,2,0,0,0,7.292,7.753,2,2,0,0,0,9.375,9.663a2,2,0,0,0,2.083-1.909A2,2,0,0,0,9.375,5.844Z" transform="translate(3.125 3.996)"/>
</svg>
