<svg xmlns="http://www.w3.org/2000/svg" width="25" height="25" viewBox="0 0 25 25">
  <g id="Group_3240" data-name="Group 3240" transform="translate(-15 -263)">
    <g id="Group_2306" data-name="Group 2306" transform="translate(-390 32)">
      <rect id="Light_1px_check_circled_background" data-name="Light 1px/check_circled background" width="25" height="25" transform="translate(405 231)" fill="#fff" opacity="0"/>
      <path id="Combined_Shape" data-name="Combined Shape" d="M10.417,20.833A10.417,10.417,0,1,1,20.833,10.417,10.428,10.428,0,0,1,10.417,20.833Zm0-19.792A9.373,9.373,0,1,0,18.3,5.348L10.48,13.174a1.565,1.565,0,0,1-2.211,0L4.84,9.743a.521.521,0,1,1,.736-.737l3.43,3.43a.521.521,0,0,0,.737,0L17.685,4.5A9.346,9.346,0,0,0,10.417,1.042Z" transform="translate(407.083 233.083)" fill="#fff"/>
    </g>
  </g>
</svg>
