<svg id="Light_1px_send" data-name="Light 1px/send" xmlns="http://www.w3.org/2000/svg" width="25" height="25" viewBox="0 0 25 25">
  <rect id="Light_1px_send_background" data-name="Light 1px/send background" width="25" height="25" fill="#fff0"/>
  <path id="Combined_Shape" data-name="Combined Shape" d="M3.121,19.539a3.147,3.147,0,0,1-2.538-1.32,3.075,3.075,0,0,1-.417-2.8l1.553-4.659a3.144,3.144,0,0,0,0-1.976L.166,4.122a3.075,3.075,0,0,1,.417-2.8A3.148,3.148,0,0,1,3.121,0,3.131,3.131,0,0,1,4.441.3L18.817,6.932a3.125,3.125,0,0,1,0,5.675L4.441,19.242A3.131,3.131,0,0,1,3.121,19.539ZM2.888,10.29a4.134,4.134,0,0,1-.181.8L1.155,15.746a2.05,2.05,0,0,0,.278,1.868A2.063,2.063,0,0,0,4,18.3L18.381,11.66a2.083,2.083,0,0,0,0-3.783L4,1.242a2.063,2.063,0,0,0-2.572.683,2.049,2.049,0,0,0-.277,1.867L2.707,8.451a4.142,4.142,0,0,1,.181.8h9.577a.521.521,0,0,1,0,1.042Z" transform="translate(2.118 2.731)"/>
</svg>
