<svg id="Light_1px_settings" data-name="Light 1px/settings" xmlns="http://www.w3.org/2000/svg" width="25" height="25" viewBox="0 0 25 25">
  <rect id="Light_1px_settings_background" data-name="Light 1px/settings background" width="25" height="25" fill="#fff0"/>
  <g id="Group" transform="translate(1.974 1.042)">
    <path id="Combined_Shape" data-name="Combined Shape" d="M11.174,22.916H9.88A2.082,2.082,0,0,1,7.9,21.492l-.4-1.211a2.409,2.409,0,0,0-1.147-1.309c-.094-.053-.171-.1-.243-.141a2.538,2.538,0,0,0-1.3-.382,2.057,2.057,0,0,0-.413.042l-1.252.256a2.082,2.082,0,0,1-2.222-1L.28,16.627A2.08,2.08,0,0,1,.526,14.2l.848-.957A2.4,2.4,0,0,0,1.935,11.6c0-.094,0-.189,0-.282A2.4,2.4,0,0,0,1.374,9.67L.526,8.713A2.079,2.079,0,0,1,.28,6.29l.647-1.12a2.081,2.081,0,0,1,2.222-1L4.4,4.426a2.063,2.063,0,0,0,.411.041,2.538,2.538,0,0,0,1.3-.382c.079-.047.16-.094.243-.14A2.414,2.414,0,0,0,7.5,2.635l.4-1.211A2.082,2.082,0,0,1,9.88,0h1.294A2.082,2.082,0,0,1,13.15,1.424l.4,1.211A2.414,2.414,0,0,0,14.7,3.945c.082.045.164.092.243.14a2.542,2.542,0,0,0,1.3.382,2.063,2.063,0,0,0,.411-.041L17.9,4.17a2.081,2.081,0,0,1,2.222,1l.647,1.12a2.08,2.08,0,0,1-.246,2.423l-.848.957a2.409,2.409,0,0,0-.561,1.647c0,.093,0,.188,0,.282a2.4,2.4,0,0,0,.561,1.646l.848.957a2.082,2.082,0,0,1,.246,2.424l-.647,1.12a2.082,2.082,0,0,1-2.222,1l-1.252-.256a2.057,2.057,0,0,0-.413-.042,2.538,2.538,0,0,0-1.3.382c-.072.043-.149.088-.243.141a2.409,2.409,0,0,0-1.148,1.309l-.4,1.211A2.082,2.082,0,0,1,11.174,22.916ZM4.812,17.408a3.6,3.6,0,0,1,1.833.53c.07.042.142.083.213.124a3.442,3.442,0,0,1,1.629,1.89l.4,1.211a1.042,1.042,0,0,0,.989.712h1.294a1.042,1.042,0,0,0,.988-.712l.4-1.211a3.442,3.442,0,0,1,1.629-1.89c.071-.04.142-.082.213-.124a3.6,3.6,0,0,1,1.833-.53,3.112,3.112,0,0,1,.621.063l1.252.256a1.041,1.041,0,0,0,1.111-.5l.647-1.12a1.041,1.041,0,0,0-.123-1.212l-.848-.957a3.441,3.441,0,0,1-.823-2.354c0-.082,0-.166,0-.249A3.441,3.441,0,0,1,18.9,8.979l.848-.957a1.041,1.041,0,0,0,.123-1.212l-.647-1.12a1.041,1.041,0,0,0-1.111-.5l-1.252.256a3.1,3.1,0,0,1-.622.063,3.6,3.6,0,0,1-1.832-.531c-.073-.044-.144-.085-.213-.123a3.449,3.449,0,0,1-1.629-1.89l-.4-1.211a1.042,1.042,0,0,0-.988-.712H9.88a1.042,1.042,0,0,0-.989.712l-.4,1.211a3.449,3.449,0,0,1-1.629,1.89c-.068.038-.14.079-.213.123a3.6,3.6,0,0,1-1.832.531,3.1,3.1,0,0,1-.622-.063L2.94,5.19a1.041,1.041,0,0,0-1.111.5L1.182,6.81A1.041,1.041,0,0,0,1.3,8.022l.848.957a3.441,3.441,0,0,1,.823,2.354c0,.083,0,.167,0,.249a3.441,3.441,0,0,1-.823,2.354l-.848.957a1.041,1.041,0,0,0-.123,1.212l.647,1.12a1.041,1.041,0,0,0,1.111.5l1.252-.256A3.112,3.112,0,0,1,4.812,17.408Z" transform="translate(0)"/>
    <path id="Combined_Shape-2" data-name="Combined Shape" d="M4.166,8.333A4.167,4.167,0,1,1,8.333,4.166,4.171,4.171,0,0,1,4.166,8.333Zm0-7.292A3.125,3.125,0,1,0,7.292,4.166,3.128,3.128,0,0,0,4.166,1.042Z" transform="translate(6.36 7.292)"/>
  </g>
</svg>
