<svg id="Light_1px_sort_decending" data-name="Light 1px/sort_decending" xmlns="http://www.w3.org/2000/svg" width="25" height="25" viewBox="0 0 25 25">
  <rect id="Light_1px_sort_decending_background" data-name="Light 1px/sort_decending background" width="25" height="25" fill="#fff"/>
  <g id="Group" transform="translate(2.604 4.688)">
    <path id="Union" d="M3.646,0a.521.521,0,0,0-.521.521V14.368L.889,12.132a.521.521,0,0,0-.737.737l2.388,2.388a1.562,1.562,0,0,0,2.21,0l2.388-2.388a.521.521,0,0,0-.737-.737L4.167,14.368V.521A.521.521,0,0,0,3.646,0Z"/>
    <path id="Path_13_Copy_5_Stroke_" data-name="Path 13 Copy 5 (Stroke)" d="M.521,0H8.854a.521.521,0,1,1,0,1.042H.521A.521.521,0,0,1,.521,0Z" transform="translate(10.417 2.083)"/>
    <path id="Path_13_Copy_6_Stroke_" data-name="Path 13 Copy 6 (Stroke)" d="M.521.042H5.729A.521.521,0,0,0,6.25-.479.521.521,0,0,0,5.729-1H.521A.521.521,0,0,0,0-.479.521.521,0,0,0,.521.042Z" transform="translate(10.417 8.292)"/>
    <path id="Path_13_Copy_7_Stroke_" data-name="Path 13 Copy 7 (Stroke)" d="M.521.042H2.6a.521.521,0,0,0,.521-.521A.521.521,0,0,0,2.6-1H.521A.521.521,0,0,0,0-.479.521.521,0,0,0,.521.042Z" transform="translate(10.417 13.5)"/>
  </g>
</svg>
