<svg id="Light_1px_star" data-name="Light 1px/star" xmlns="http://www.w3.org/2000/svg" width="19.843" height="19.078"
     viewBox="0 0 19.843 19.078">
    <g fill="" id="Group" >
        <path id="Combined_Shape" data-name="Combined Shape"
              d="M14.758,19.079a2.072,2.072,0,0,1-1.185-.382l-2.462-1.714a2.084,2.084,0,0,0-2.38,0L6.269,18.7a2.072,2.072,0,0,1-1.184.382,2.124,2.124,0,0,1-1.693-.864,2.022,2.022,0,0,1-.307-1.832l.869-2.872a2.092,2.092,0,0,0-.736-2.263L.828,9.436A2.083,2.083,0,0,1,2.044,5.693l3-.061a2.092,2.092,0,0,0,1.926-1.4L7.953,1.4a2.083,2.083,0,0,1,3.936,0l.985,2.833a2.092,2.092,0,0,0,1.926,1.4l3,.061a2.084,2.084,0,0,1,1.216,3.743l-2.391,1.812a2.093,2.093,0,0,0-.735,2.263l.868,2.872a2.021,2.021,0,0,1-.306,1.832A2.123,2.123,0,0,1,14.758,19.079Zm-4.837-3.51a3.11,3.11,0,0,1,1.785.56l2.463,1.714a1.034,1.034,0,0,0,.591.191,1.062,1.062,0,0,0,.847-.432,1.01,1.01,0,0,0,.153-.915l-.869-2.872A3.138,3.138,0,0,1,16,10.419l2.391-1.812a1.042,1.042,0,0,0-.608-1.872l-3-.061a3.137,3.137,0,0,1-2.888-2.1l-.984-2.834a1.042,1.042,0,0,0-1.968,0L7.952,4.575a3.135,3.135,0,0,1-2.888,2.1l-3,.061a1.042,1.042,0,0,0-.608,1.872l2.391,1.812a3.136,3.136,0,0,1,1.1,3.395l-.868,2.872a1.01,1.01,0,0,0,.153.915,1.062,1.062,0,0,0,.847.432,1.035,1.035,0,0,0,.592-.191l2.462-1.714A3.113,3.113,0,0,1,9.921,15.568Z"/>
    </g>
</svg>
