<svg id="Light_1px_sync" data-name="Light 1px/sync" xmlns="http://www.w3.org/2000/svg" width="19.792" height="19.792" viewBox="0 0 19.792 19.792">
  <g id="Group">
    <path id="Union" d="M9.9,1.042A8.724,8.724,0,0,1,17.341,5.2L14.585,5.2a.521.521,0,0,0,0,1.042l3.605.011a.519.519,0,0,0,.082,0h.479a.521.521,0,0,0,.522-.521V1.563a.521.521,0,1,0-1.042,0v3.1A9.765,9.765,0,0,0,9.9,0,9.9,9.9,0,0,0,0,9.9a.521.521,0,0,0,1.042,0A8.854,8.854,0,0,1,9.9,1.042Z"/>
    <path id="Union-2" data-name="Union" d="M9.375,9.375A8.724,8.724,0,0,1,1.93,5.212l2.756.008a.521.521,0,0,0,0-1.042L1.084,4.168a.519.519,0,0,0-.082,0H.522A.521.521,0,0,0,0,4.688V8.854a.521.521,0,1,0,1.042,0v-3.1a9.765,9.765,0,0,0,8.333,4.661,9.9,9.9,0,0,0,9.9-9.9.521.521,0,1,0-1.042,0A8.854,8.854,0,0,1,9.375,9.375Z" transform="translate(0.521 9.375)"/>
  </g>
</svg>
