<svg id="Group" xmlns="http://www.w3.org/2000/svg" width="19.792" height="19.792" viewBox="0 0 19.792 19.792">
  <path id="Combined_Shape" data-name="Combined Shape" d="M15.1,19.792H4.688a2.607,2.607,0,0,1-2.6-2.6V4.166H.521a.521.521,0,1,1,0-1.042H5.209V2.6A2.607,2.607,0,0,1,7.812,0h4.167a2.607,2.607,0,0,1,2.6,2.6v.52h4.688a.521.521,0,0,1,0,1.042H17.708V17.187A2.607,2.607,0,0,1,15.1,19.792ZM3.125,4.166V17.187A1.565,1.565,0,0,0,4.688,18.75H15.1a1.565,1.565,0,0,0,1.563-1.563V4.166ZM7.812,1.042A1.564,1.564,0,0,0,6.25,2.6v.52h7.291V2.6a1.564,1.564,0,0,0-1.562-1.563Z" transform="translate(0)"/>
  <path id="Path_38_Copy_Stroke_" data-name="Path 38 Copy (Stroke)" d="M1.042.521V5.729A.521.521,0,1,1,0,5.729V.521a.521.521,0,0,1,1.042,0Z" transform="translate(7.292 8.333)"/>
  <path id="Path_38_Copy_Stroke_2" data-name="Path 38 Copy (Stroke)" d="M1.042.521V5.729A.521.521,0,1,1,0,5.729V.521a.521.521,0,0,1,1.042,0Z" transform="translate(11.458 8.333)"/>
</svg>
