<svg id="Light_1px_trending_up" data-name="Light 1px/trending_up" xmlns="http://www.w3.org/2000/svg" width="25" height="25" viewBox="0 0 25 25">
  <rect id="Light_1px_trending_up_background" data-name="Light 1px/trending_up background" width="25" height="25" fill="#fff"/>
  <path id="Union" d="M19.639.153A.519.519,0,0,0,19.271,0H14.062a.521.521,0,0,0,0,1.042h3.951L11.306,7.749a.521.521,0,0,1-.737,0L7.876,5.056a1.562,1.562,0,0,0-2.21,0L.153,10.569a.521.521,0,0,0,.737.737L6.4,5.792a.521.521,0,0,1,.737,0L9.833,8.486a1.562,1.562,0,0,0,2.21,0L18.75,1.778V5.729a.521.521,0,1,0,1.042,0V.521a.519.519,0,0,0-.153-.368Z" transform="translate(2.604 6.771)"/>
</svg>
