<svg data-name="Light 1px/tv" xmlns="http://www.w3.org/2000/svg" width="25" height="25" viewBox="0 0 25 25">
    <path data-name="Combined Shape" d="M19.791 18.75H5.208a3.129 3.129 0 0 1-3.125-3.125V6.25a3.128 3.128 0 0 1 3.125-3.125h14.583a3.128 3.128 0 0 1 3.125 3.125v9.375a3.129 3.129 0 0 1-3.125 3.125zM5.208 4.167A2.085 2.085 0 0 0 3.125 6.25v9.375a2.086 2.086 0 0 0 2.083 2.084h14.583a2.086 2.086 0 0 0 2.084-2.084V6.25a2.085 2.085 0 0 0-2.083-2.083z"/>
    <path data-name="Vector 20 (Stroke)" d="M8.333 20.313h8.333a.521.521 0 1 1 0 1.042H8.333a.521.521 0 0 1 0-1.042z"/>
</svg>
