<svg id="Light_1px_underline" data-name="Light 1px/underline" xmlns="http://www.w3.org/2000/svg" width="25" height="25" viewBox="0 0 25 25">
  <rect id="Light_1px_underline_background" data-name="Light 1px/underline background" width="25" height="25" fill="#fff"/>
  <g id="Group" transform="translate(5.729 2.604)">
    <path id="Vector_55_Stroke_" data-name="Vector 55 (Stroke)" d="M.521,0h12.5a.521.521,0,0,1,0,1.042H.521A.521.521,0,0,1,.521,0Z" transform="translate(0 18.75)"/>
    <path id="Rectangle_31_Stroke_" data-name="Rectangle 31 (Stroke)" d="M1.042.521V9.375a5.729,5.729,0,0,0,11.458,0V.521a.521.521,0,1,1,1.042,0V9.375A6.771,6.771,0,0,1,0,9.375V.521a.521.521,0,0,1,1.042,0Z"/>
  </g>
</svg>
