<svg xmlns="http://www.w3.org/2000/svg" width="10.957" height="10.96" viewBox="0 0 10.957 10.96">
  <g id="Light_1px_download" data-name="Light 1px/download" transform="translate(12.803 12.822) rotate(180)">
    <g id="Group" transform="translate(5.175 -0.625)">
      <path id="Path_13_Copy_5_Stroke_" data-name="Path 13 Copy 5 (Stroke)" d="M.6.521V2.6c0,.863.4,1.563.9,1.563H8.706c.5,0,.9-.7.9-1.563V.521c0-.288.134-.521.3-.521s.3.233.3.521V2.6c0,1.438-.672,2.6-1.5,2.6H1.5C.672,5.208,0,4.042,0,2.6V.521C0,.233.134,0,.3,0S.6.233.6.521Z" transform="translate(-2.954 7.864)" fill="none" stroke="#e9edf2" stroke-width="0.75"/>
      <path id="Union" d="M2.285,0c-.126,0-.229.146-.229.327V6.4L.39,4.016a.184.184,0,0,0-.323,0,.432.432,0,0,0,0,.462L1.8,6.956a.553.553,0,0,0,.969,0L4.5,4.479a.432.432,0,0,0,0-.462.184.184,0,0,0-.323,0L2.514,6.4V.327C2.514.146,2.411,0,2.285,0Z" transform="translate(-0.135 2.862)" fill="none" stroke="#e9edf2" stroke-width="0.75"/>
    </g>
  </g>
</svg>
