<svg id="Light_1px_chevron_double_up" data-name="Light 1px/chevron_double_up" xmlns="http://www.w3.org/2000/svg" width="25" height="25" viewBox="0 0 25 25">
  <rect id="Light_1px_chevron_double_up_background" data-name="Light 1px/chevron_double_up background" width="25" height="25" fill="#fff0"/>
  <g id="Group" transform="translate(5.208 5.379)">
    <path id="Vector_474_Stroke_" data-name="Vector 474 (Stroke)" d="M.889,7.228,6.923,1.194a.521.521,0,0,1,.737,0l6.034,6.034a.521.521,0,1,0,.737-.737L8.4.458a1.563,1.563,0,0,0-2.21,0L.153,6.492a.521.521,0,0,0,.737.737Z" transform="translate(0 0)"/>
    <path id="Vector_475_Stroke_" data-name="Vector 475 (Stroke)" d="M.889,7.228,6.923,1.194a.521.521,0,0,1,.737,0l6.034,6.034a.521.521,0,1,0,.737-.737L8.4.458a1.563,1.563,0,0,0-2.21,0L.153,6.492a.521.521,0,0,0,.737.737Z" transform="translate(0 6.51)"/>
  </g>
</svg>
