<svg id="Light_1px_privacy" data-name="Light 1px/privacy" xmlns="http://www.w3.org/2000/svg" width="25" height="25" viewBox="0 0 25 25">
  <rect id="Light_1px_privacy_background" data-name="Light 1px/privacy background" width="25" height="25" fill="#fff0"/>
  <path id="Combined_Shape" data-name="Combined Shape" d="M9.375,21.465a2.473,2.473,0,0,1-1.1-.259,20.252,20.252,0,0,1-4.758-3.233c-.276-.258-.544-.529-.8-.8A9.374,9.374,0,0,1,0,10.768V5.209A3.122,3.122,0,0,1,2.137,2.243L8.387.16a3.125,3.125,0,0,1,1.976,0l6.25,2.083A3.122,3.122,0,0,1,18.75,5.209v5.559a9.374,9.374,0,0,1-2.716,6.4c-.255.278-.523.548-.8.8a20.233,20.233,0,0,1-4.758,3.234A2.473,2.473,0,0,1,9.375,21.465Zm0-7.571A6.281,6.281,0,0,0,3.983,16.98a19.208,19.208,0,0,0,4.749,3.292,1.434,1.434,0,0,0,1.284,0,19.206,19.206,0,0,0,4.749-3.292A6.281,6.281,0,0,0,9.375,13.894Zm0-1.042a7.271,7.271,0,0,1,6.13,3.342,8.23,8.23,0,0,0,2.2-5.426V5.209a2.082,2.082,0,0,0-1.425-1.977L10.034,1.148a2.086,2.086,0,0,0-1.318,0L2.467,3.232A2.082,2.082,0,0,0,1.042,5.209v5.559a8.23,8.23,0,0,0,2.2,5.426A7.272,7.272,0,0,1,9.375,12.852Zm0-1.042A3.125,3.125,0,1,1,12.5,8.685,3.129,3.129,0,0,1,9.375,11.811Zm0-5.209a2.083,2.083,0,1,0,2.083,2.083A2.085,2.085,0,0,0,9.375,6.6Z" transform="translate(3.125 1.731)"/>
</svg>
