<svg id="Light_1px_vector" data-name="Light 1px/vector" xmlns="http://www.w3.org/2000/svg" width="20.833" height="16.667" viewBox="0 0 20.833 16.667">
  <path id="Combined_Shape" data-name="Combined Shape" d="M17.708,16.667H15.625a2.086,2.086,0,0,1-2.084-2.083V12.5a2.086,2.086,0,0,1,2.084-2.083h.52V9.375A5.709,5.709,0,0,0,13.507,4.55a2.084,2.084,0,0,1-2.048,1.7H9.375a2.083,2.083,0,0,1-2.048-1.7A5.709,5.709,0,0,0,4.688,9.375v1.042h.521A2.085,2.085,0,0,1,7.292,12.5v2.084a2.085,2.085,0,0,1-2.083,2.083H3.125a2.085,2.085,0,0,1-2.083-2.083V12.5a2.085,2.085,0,0,1,2.083-2.083h.521V9.375a6.741,6.741,0,0,1,3.16-5.729H4.1A2.084,2.084,0,1,1,4.1,2.6H7.292V2.083A2.085,2.085,0,0,1,9.375,0h2.083a2.085,2.085,0,0,1,2.083,2.083V2.6h3.191a2.084,2.084,0,1,1,0,1.042H14.027a6.742,6.742,0,0,1,3.16,5.729v1.042h.521A2.085,2.085,0,0,1,19.792,12.5v2.084A2.085,2.085,0,0,1,17.708,16.667Zm-2.083-5.209A1.043,1.043,0,0,0,14.584,12.5v2.084a1.043,1.043,0,0,0,1.042,1.042h2.083a1.043,1.043,0,0,0,1.042-1.042V12.5a1.043,1.043,0,0,0-1.042-1.042Zm-12.5,0A1.043,1.043,0,0,0,2.083,12.5v2.084a1.043,1.043,0,0,0,1.042,1.042H5.209A1.043,1.043,0,0,0,6.25,14.584V12.5a1.043,1.043,0,0,0-1.042-1.042ZM9.375,1.042A1.043,1.043,0,0,0,8.333,2.083V4.166A1.043,1.043,0,0,0,9.375,5.209h2.083A1.043,1.043,0,0,0,12.5,4.166V2.083a1.043,1.043,0,0,0-1.042-1.042ZM18.75,2.083a1.045,1.045,0,0,0-.9.521,1.041,1.041,0,0,0,0,1.042,1.042,1.042,0,1,0,.9-1.563Zm-16.667,0a1.04,1.04,0,1,0,.9.521A1.043,1.043,0,0,0,2.083,2.083Z"/>
</svg>
