
<svg xmlns="http://www.w3.org/2000/svg" xmlns:xlink="http://www.w3.org/1999/xlink" width="38.833" height="32.584" viewBox="0 0 38.833 32.584">
  <defs>
    <filter id="Combined_Shape" x="0" y="0" width="38.833" height="32.584" filterUnits="userSpaceOnUse">
      <feOffset dy="3" input="SourceAlpha"/>
      <feGaussianBlur stdDeviation="3" result="blur"/>
      <feFlood flood-opacity="0.161"/>
      <feComposite operator="in" in2="blur"/>
      <feComposite in="SourceGraphic"/>
    </filter>
    <filter id="Combined_Shape-2" x="0" y="0" width="38.833" height="32.584" filterUnits="userSpaceOnUse">
      <feOffset dy="3" input="SourceAlpha"/>
      <feGaussianBlur stdDeviation="3" result="blur-2"/>
      <feFlood flood-opacity="0.161" result="color"/>
      <feComposite operator="out" in="SourceGraphic" in2="blur-2"/>
      <feComposite operator="in" in="color"/>
      <feComposite operator="in" in2="SourceGraphic"/>
    </filter>
  </defs>
  <g id="Light_1px_video_recorder" data-name="Light 1px/video_recorder" transform="translate(6.917 0.792)">
    <rect id="Light_1px_video_recorder_background" data-name="Light 1px/video_recorder background" width="25" height="25" fill="#fff" opacity="0"/>
    <g data-type="innerShadowGroup">
      <g transform="matrix(1, 0, 0, 1, -6.92, -0.79)" filter="url(#Combined_Shape)">
        <path id="Combined_Shape-3" data-name="Combined Shape" d="M12.5,14.584H3.125A3.129,3.129,0,0,1,0,11.458V3.125A3.128,3.128,0,0,1,3.125,0H12.5a3.129,3.129,0,0,1,3.126,3.125V4.341l2.646-2.2a1.534,1.534,0,0,1,.992-.365,1.571,1.571,0,0,1,1.57,1.565v7.912a1.572,1.572,0,0,1-1.571,1.566,1.534,1.534,0,0,1-.991-.365l-2.646-2.2v1.215A3.129,3.129,0,0,1,12.5,14.584ZM3.125,1.042A2.085,2.085,0,0,0,1.042,3.125v8.333a2.085,2.085,0,0,0,2.083,2.083H12.5a2.086,2.086,0,0,0,2.084-2.083V3.125A2.086,2.086,0,0,0,12.5,1.042ZM19.269,2.814a.512.512,0,0,0-.331.122L15.625,5.7V8.887l3.312,2.76a.512.512,0,0,0,.331.121.534.534,0,0,0,.363-.144.513.513,0,0,0,.161-.377V3.336A.523.523,0,0,0,19.269,2.814Z" transform="translate(9 6)" fill="#fff"/>
      </g>
      <g transform="matrix(1, 0, 0, 1, -6.92, -0.79)" filter="url(#Combined_Shape-2)">
        <path id="Combined_Shape-4" data-name="Combined Shape" d="M12.5,14.584H3.125A3.129,3.129,0,0,1,0,11.458V3.125A3.128,3.128,0,0,1,3.125,0H12.5a3.129,3.129,0,0,1,3.126,3.125V4.341l2.646-2.2a1.534,1.534,0,0,1,.992-.365,1.571,1.571,0,0,1,1.57,1.565v7.912a1.572,1.572,0,0,1-1.571,1.566,1.534,1.534,0,0,1-.991-.365l-2.646-2.2v1.215A3.129,3.129,0,0,1,12.5,14.584ZM3.125,1.042A2.085,2.085,0,0,0,1.042,3.125v8.333a2.085,2.085,0,0,0,2.083,2.083H12.5a2.086,2.086,0,0,0,2.084-2.083V3.125A2.086,2.086,0,0,0,12.5,1.042ZM19.269,2.814a.512.512,0,0,0-.331.122L15.625,5.7V8.887l3.312,2.76a.512.512,0,0,0,.331.121.534.534,0,0,0,.363-.144.513.513,0,0,0,.161-.377V3.336A.523.523,0,0,0,19.269,2.814Z" transform="translate(9 6)" fill="#fff"/>
      </g>
    </g>
  </g>
</svg>
